<svg width="145" height="32" viewBox="0 0 145 32" fill="none" xmlns="http://www.w3.org/2000/svg">
<path d="M14.0243 17.4537C13.2708 22.392 9.05232 26.2359 3.86158 26.3599C3.81567 26.3599 3.76976 26.3599 3.72385 26.3599C2.63007 26.3733 1.57139 26.217 0.572137 25.9205C0.472212 26.5836 0.420898 27.2602 0.420898 27.9476C0.420898 28.36 0.442504 28.7697 0.477613 29.1713C1.48227 29.4032 2.52744 29.5326 3.60232 29.5326C3.64283 29.5326 3.68064 29.5299 3.72115 29.5299C10.5566 29.4706 16.1984 24.4406 17.176 17.8904C17.2165 17.6262 17.2462 17.3567 17.2705 17.0871C17.3056 16.6828 17.3273 16.2757 17.3273 15.8633C17.3273 15.4509 17.3056 15.0412 17.2705 14.6395C17.2462 14.37 17.2165 14.1004 17.176 13.8363C16.1984 7.28871 10.5566 2.25608 3.72385 2.19947C3.68334 2.19947 3.64553 2.19678 3.60502 2.19678C2.53014 2.19678 1.48497 2.32347 0.480314 2.55798C0.445205 2.96232 0.423599 3.36935 0.423599 3.78177C0.423599 4.47184 0.480314 5.14843 0.58024 5.80884C1.45797 5.54468 2.3843 5.39103 3.34575 5.36946C3.47268 5.36677 3.59692 5.36946 3.72385 5.36946C8.92269 5.42607 13.2546 9.24839 14.0216 14.2783V14.2837C14.0864 14.7177 14.1296 15.1598 14.1404 15.6099C14.1566 16.2353 14.1134 16.8499 14.0216 17.4483L14.0243 17.4537Z" fill="#00B7AF"/>
<path d="M30.961 2.55274C29.8997 2.30744 28.8113 2.18614 27.7229 2.19423C28.552 7.67432 24.6846 13.1032 19.2184 14.1033C17.6061 14.3998 16.3611 14.2542 14.025 14.2812C12.1912 14.3 10.6788 14.5965 8.97468 15.2893C6.03093 16.4861 3.52738 18.7504 2.0393 21.5511C1.08055 23.3518 0.516105 25.3195 0.435084 27.3574C0.416179 27.8534 0.426982 28.3979 0.45939 28.937C0.467492 29.0502 0.478295 29.1742 0.478295 29.1742C0.478295 29.1742 0.929311 29.2766 1.04274 29.2982C1.93127 29.4599 2.836 29.5435 3.73803 29.5354C2.97104 24.4677 6.20917 19.3677 11.1271 17.8932C12.7124 17.4161 14.3788 17.4107 16.0235 17.4404C17.625 17.47 19.1941 17.408 20.7578 17.0118C23.6314 16.2813 26.2456 14.5588 28.0875 12.2244C30.2319 9.50731 31.2662 5.99229 30.961 2.55274Z" fill="#00B7AF"/>
<path d="M0.877726 10.6664C0.31058 12.2945 0 14.0439 0 15.8661C0 17.6883 0.31058 19.4351 0.877726 21.0659C1.9553 19.0119 3.4812 17.2328 5.35548 15.8661C3.4812 14.4995 1.9553 12.7204 0.877726 10.6664ZM15.8936 6.95188C17.6815 4.5043 20.1526 2.67401 22.9613 1.65508C20.8332 0.598417 18.4349 0 15.8963 0C13.3549 0 10.9567 0.598417 8.82587 1.65508C11.6373 2.67401 14.1057 4.5043 15.8936 6.95188ZM15.8936 24.7777C14.1057 27.2253 11.6346 29.0555 8.82587 30.0745C10.954 31.1311 13.3522 31.7296 15.8936 31.7296C18.4349 31.7296 20.8332 31.1311 22.964 30.0745C20.1526 29.0555 17.6842 27.2253 15.8936 24.7777ZM30.9122 10.6664C29.8373 12.715 28.3114 14.4968 26.4317 15.8634C28.306 17.2301 29.8319 19.0092 30.9095 21.0632C31.4766 19.4324 31.7872 17.6856 31.7872 15.8634C31.7899 14.0439 31.4793 12.2972 30.9122 10.6664Z" fill="#00B7AF"/>
<path d="M14.0243 17.4537C13.2708 22.392 9.05232 26.2359 3.86158 26.3599C3.81567 26.3599 3.76976 26.3599 3.72385 26.3599C2.63007 26.3733 1.57139 26.217 0.572137 25.9205C0.472212 26.5836 0.420898 27.2602 0.420898 27.9476C0.420898 28.36 0.442504 28.7697 0.477613 29.1713C1.48227 29.4032 2.52744 29.5326 3.60232 29.5326C3.64283 29.5326 3.68064 29.5299 3.72115 29.5299C10.5566 29.4706 16.1984 24.4406 17.176 17.8904C17.2165 17.6262 17.2462 17.3567 17.2705 17.0871C17.3056 16.6828 17.3273 16.2757 17.3273 15.8633C17.3273 15.4509 17.3056 15.0412 17.2705 14.6395C17.2462 14.37 17.2165 14.1004 17.176 13.8363C16.1984 7.28871 10.5566 2.25608 3.72385 2.19947C3.68334 2.19947 3.64553 2.19678 3.60502 2.19678C2.53014 2.19678 1.48497 2.32347 0.480314 2.55798C0.445205 2.96232 0.423599 3.36935 0.423599 3.78177C0.423599 4.47184 0.480314 5.14843 0.58024 5.80884C1.45797 5.54468 2.3843 5.39103 3.34575 5.36946C3.47268 5.36677 3.59692 5.36946 3.72385 5.36946C8.92269 5.42607 13.2546 9.24839 14.0216 14.2783V14.2837C14.0864 14.7177 14.1296 15.1598 14.1404 15.6099C14.1566 16.2353 14.1134 16.8499 14.0216 17.4483L14.0243 17.4537Z" fill="url(#paint0_radial)"/>
<path d="M0.488402 2.55811C1.54977 2.31281 2.62465 2.18882 3.71303 2.1969C2.88122 7.67969 6.75131 13.1032 12.2148 14.1059C13.8271 14.4024 15.0722 14.2569 17.4083 14.2838C19.242 14.3027 20.7544 14.5992 22.4586 15.292C25.4023 16.4888 27.9059 18.7531 29.3939 21.5538C30.3527 23.3544 30.9657 25.705 30.9982 27.3924C31.009 27.8884 30.9901 28.7078 30.9657 28.9936L30.9495 29.1742C30.9495 29.1742 30.4985 29.2712 30.3824 29.2928C29.5965 29.4302 28.5918 29.5435 27.6871 29.5354C28.4541 24.4677 25.216 19.3677 20.298 17.8932C18.7127 17.4161 17.0464 17.4107 15.4016 17.4404C13.8001 17.47 12.231 17.408 10.6673 17.0118C7.79918 16.2786 5.18491 14.5561 3.34304 12.2217C1.20139 9.50729 0.180522 5.99766 0.488402 2.55811Z" fill="#00B7AF"/>
<path d="M30.961 2.55274C29.8997 2.30744 28.8113 2.18614 27.7229 2.19423C28.552 7.67432 24.6846 13.1032 19.2184 14.1033C17.6061 14.3998 16.3611 14.2542 14.025 14.2812C12.1912 14.3 10.6788 14.5965 8.97468 15.2893C6.03093 16.4861 3.52738 18.7504 2.0393 21.5511C1.08055 23.3518 0.516105 25.3195 0.435084 27.3574C0.416179 27.8534 0.426982 28.3979 0.45939 28.937C0.467492 29.0502 0.478295 29.1742 0.478295 29.1742C0.478295 29.1742 0.929311 29.2766 1.04274 29.2982C1.93127 29.4599 2.836 29.5435 3.73803 29.5354C2.97104 24.4677 6.20917 19.3677 11.1271 17.8932C12.7124 17.4161 14.3788 17.4107 16.0235 17.4404C17.625 17.47 19.1941 17.408 20.7578 17.0118C23.6314 16.2813 26.2456 14.5588 28.0875 12.2244C30.2319 9.50731 31.2662 5.99229 30.961 2.55274Z" fill="url(#paint1_radial)"/>
<path d="M0.877726 10.6664C0.31058 12.2945 0 14.0439 0 15.8661C0 17.6883 0.31058 19.4351 0.877726 21.0659C1.9553 19.0119 3.4812 17.2328 5.35548 15.8661C3.4812 14.4995 1.9553 12.7204 0.877726 10.6664ZM15.8936 6.95188C17.6815 4.5043 20.1526 2.67401 22.9613 1.65508C20.8332 0.598417 18.4349 0 15.8963 0C13.3549 0 10.9567 0.598417 8.82587 1.65508C11.6373 2.67401 14.1057 4.5043 15.8936 6.95188ZM15.8936 24.7777C14.1057 27.2253 11.6346 29.0555 8.82587 30.0745C10.954 31.1311 13.3522 31.7296 15.8936 31.7296C18.4349 31.7296 20.8332 31.1311 22.964 30.0745C20.1526 29.0555 17.6842 27.2253 15.8936 24.7777ZM30.9122 10.6664C29.8373 12.715 28.3114 14.4968 26.4317 15.8634C28.306 17.2301 29.8319 19.0092 30.9095 21.0632C31.4766 19.4324 31.7872 17.6856 31.7872 15.8634C31.7899 14.0439 31.4793 12.2972 30.9122 10.6664Z" fill="url(#paint2_radial)"/>
<path d="M17.4114 17.4537C18.1648 22.3947 22.3833 26.2359 27.5741 26.3626C27.62 26.3626 27.6659 26.3626 27.7118 26.3626C28.8056 26.376 29.8643 26.2197 30.8635 25.9232C30.9634 26.5863 31.0148 27.2629 31.0148 27.9503C31.0148 28.3627 30.9932 28.7724 30.958 29.174C29.9534 29.4059 28.9082 29.5353 27.8333 29.5353C27.7928 29.5353 27.755 29.5326 27.7145 29.5326C20.879 29.4733 15.2373 24.4433 14.2596 17.8931C14.2191 17.6289 14.1894 17.3594 14.1651 17.0898C14.13 16.6855 14.1084 16.2784 14.1084 15.866C14.1084 15.4536 14.13 15.0439 14.1651 14.6422C14.1894 14.3727 14.2191 14.1031 14.2596 13.8389C15.2373 7.28871 20.879 2.25878 27.7145 2.19947C27.755 2.19947 27.7928 2.19678 27.8333 2.19678C28.9082 2.19678 29.9534 2.32347 30.958 2.55798C30.9932 2.96232 31.0148 3.36935 31.0148 3.78177C31.0148 4.47184 30.958 5.14573 30.8581 5.80884C29.9777 5.54468 29.0541 5.39372 28.0899 5.36946C27.963 5.36677 27.8387 5.36946 27.7118 5.36946C22.513 5.42607 18.181 9.24839 17.4141 14.2783V14.2837C17.3492 14.7177 17.306 15.1598 17.2952 15.6099C17.279 16.2353 17.3222 16.8499 17.4141 17.4483L17.4114 17.4537Z" fill="#00B7AF"/>
<path d="M17.4062 17.4295C17.4062 17.4349 17.4063 17.4376 17.409 17.443V17.4457C18.3866 17.4888 19.3589 17.602 20.3014 17.8851C24.1823 19.0495 27.018 22.4729 27.6635 26.3572C27.6797 26.3572 27.6932 26.3572 27.7094 26.3572C28.8005 26.3707 29.8565 26.2171 30.853 25.9206C30.6126 24.4865 30.0995 22.8692 29.3973 21.5483C28.1226 19.1493 26.0998 17.1465 23.6989 15.8688C22.7671 16.3594 21.7814 16.7475 20.7632 17.0063C19.6478 17.2893 18.5324 17.3999 17.4062 17.4295Z" fill="url(#paint3_linear)"/>
<path d="M13.9382 14.2892C13.3603 14.2703 12.8066 14.2218 12.2017 14.1086C7.80496 13.3026 4.44259 9.63126 3.72961 5.37226C3.72421 5.37226 3.71881 5.37226 3.7107 5.37226C3.58377 5.36957 3.45954 5.36957 3.33261 5.37226C2.37386 5.39652 1.45292 5.54747 0.575195 5.80894C0.923585 8.13522 1.86343 10.3672 3.3299 12.2244C4.51821 13.7312 6.0306 14.9793 7.72394 15.8742C8.12634 15.6613 8.53685 15.4645 8.95815 15.292C10.6407 14.61 12.1369 14.3135 13.9382 14.2892Z" fill="url(#paint4_linear)"/>
<path d="M49.9413 10.8336V21.0202H46.8436V19.9231H46.8031C46.1442 20.783 45.2016 21.2142 43.9701 21.2142C43.2787 21.2142 42.6332 21.0849 42.0337 20.8288C41.4368 20.57 40.9264 20.2142 40.5051 19.7613C40.0838 19.3085 39.7543 18.7505 39.5166 18.0928C39.279 17.4351 39.1602 16.718 39.1602 15.9363C39.1602 15.1708 39.279 14.4565 39.5166 13.796C39.7543 13.1356 40.0811 12.5749 40.4943 12.114C40.9075 11.6531 41.4017 11.2919 41.977 11.0304C42.5495 10.7689 43.1626 10.6395 43.8162 10.6395C44.9639 10.6395 45.9011 11.0627 46.6276 11.9091H46.6681V10.8309H49.9413V10.8336ZM46.1847 17.6831C46.5979 17.2383 46.8058 16.6614 46.8058 15.9498C46.8058 15.4889 46.7113 15.0737 46.5249 14.7044C46.3386 14.3352 46.0793 14.0467 45.7498 13.8392C45.4204 13.6316 45.0558 13.5292 44.6561 13.5292C44.0241 13.5292 43.5029 13.7529 43.087 14.2004C42.6738 14.6478 42.4658 15.2301 42.4658 15.9498C42.4658 16.6614 42.6684 17.2383 43.0762 17.6831C43.484 18.1278 44.0052 18.3489 44.6453 18.3489C45.2556 18.3489 45.7688 18.1251 46.1847 17.6831Z" fill="#00B7AF"/>
<path d="M52.3418 5.69043H55.5907V21.0228H52.3418V5.69043Z" fill="#00B7AF"/>
<path d="M59.1399 20.3516C58.5971 19.7748 58.3243 18.9311 58.3243 17.8205V13.4887H57.1738V10.8363H58.3243V7.58002L61.5841 7.23499V10.8336H64.0606V13.486H61.5841V17.2059C61.5841 17.5725 61.6408 17.8555 61.7515 18.0604C61.8622 18.2626 62.0648 18.365 62.3565 18.365C62.6968 18.365 63.0316 18.2814 63.3638 18.1116L64.1686 20.5107C63.7554 20.7398 63.3395 20.915 62.9209 21.0336C62.5023 21.1522 61.9676 21.2115 61.3167 21.2115C60.4093 21.2142 59.6828 20.9258 59.1399 20.3516Z" fill="#00B7AF"/>
<path d="M75.0554 16.8015H68.1092C68.2254 17.3568 68.5035 17.788 68.9491 18.098C69.3948 18.4053 69.9187 18.5617 70.5237 18.5617C71.4689 18.5617 72.2926 18.1519 73.0002 17.3325L74.7313 19.2733C74.2695 19.8555 73.6484 20.3246 72.8679 20.6804C72.0874 21.0362 71.1907 21.2141 70.178 21.2141C69.4299 21.2141 68.7304 21.0847 68.0741 20.8286C67.4178 20.5699 66.8561 20.2141 66.3889 19.7558C65.9217 19.2976 65.549 18.7396 65.2789 18.0792C65.0088 17.4188 64.8711 16.7017 64.8711 15.9281C64.8711 15.168 65.0007 14.4617 65.2627 13.804C65.5247 13.1463 65.8812 12.5883 66.3376 12.1273C66.7913 11.6664 67.3422 11.3025 67.9823 11.0383C68.6251 10.7742 69.3137 10.6421 70.0564 10.6421C71.0341 10.6421 71.9091 10.8631 72.6842 11.3025C73.4593 11.7419 74.0616 12.3592 74.491 13.1517C74.9231 13.9442 75.1391 14.8391 75.1391 15.8365C75.1391 16.0818 75.1121 16.4025 75.0554 16.8015ZM68.8033 13.6665C68.4495 13.9469 68.2227 14.3458 68.12 14.8607L71.9388 14.8391C71.8632 14.5075 71.7444 14.2218 71.5823 13.9846C71.4203 13.7474 71.2096 13.5641 70.9504 13.4347C70.6911 13.3053 70.4048 13.2406 70.0834 13.2406C69.5838 13.2433 69.1544 13.3835 68.8033 13.6665Z" fill="#00B7AF"/>
<path d="M83.3323 10.6503V14.1572C83.1352 14.1438 82.8813 14.1357 82.5681 14.1357C82.0657 14.1357 81.6363 14.2354 81.2798 14.4349C80.9233 14.6344 80.6587 14.9066 80.4858 15.2543C80.313 15.5994 80.2265 15.9956 80.2265 16.4431V21.0175H76.9668V10.8336H80.2265V12.1949H80.2671C80.5263 11.8552 80.8126 11.5722 81.1286 11.3404C81.4446 11.1113 81.7794 10.936 82.1332 10.8174C82.487 10.6988 82.8489 10.6395 83.2243 10.6395C83.2756 10.6422 83.3107 10.6449 83.3323 10.6503Z" fill="#00B7AF"/>
<path d="M92.6776 10.8606C93.1043 11.0061 93.4878 11.2406 93.8226 11.5668C94.1575 11.893 94.4141 12.335 94.5923 12.8984C94.7679 13.4618 94.857 14.133 94.857 14.912V21.0229H91.5973V15.7153C91.5973 15.1654 91.5352 14.7314 91.4082 14.4079C91.2813 14.0872 91.1057 13.8634 90.8789 13.7367C90.652 13.61 90.3469 13.548 89.9661 13.548C89.5934 13.548 89.2666 13.6316 88.9884 13.8014C88.7102 13.9713 88.4915 14.2354 88.3321 14.5939C88.1728 14.9524 88.0918 15.3891 88.0918 15.9067V21.0202H84.832V10.8336H88.0918V12.0628H88.1134C88.5131 11.6018 88.9803 11.2487 89.5096 11.0061C90.039 10.7608 90.6034 10.6395 91.2003 10.6395C91.7593 10.6422 92.2508 10.715 92.6776 10.8606Z" fill="#00B7AF"/>
<path d="M107.352 10.8336V21.0202H104.255V19.9231H104.214C103.555 20.783 102.613 21.2142 101.381 21.2142C100.69 21.2142 100.044 21.0849 99.4448 20.8288C98.848 20.57 98.3375 20.2142 97.9162 19.7613C97.4949 19.3085 97.1654 18.7505 96.9278 18.0928C96.6901 17.4351 96.5713 16.718 96.5713 15.9363C96.5713 15.1708 96.6901 14.4565 96.9278 13.796C97.1654 13.1356 97.4922 12.5749 97.9054 12.114C98.3186 11.6531 98.8129 11.2919 99.3881 11.0304C99.9607 10.7689 100.574 10.6395 101.227 10.6395C102.375 10.6395 103.312 11.0627 104.039 11.9091H104.079V10.8309H107.352V10.8336ZM103.593 17.6831C104.006 17.2383 104.214 16.6614 104.214 15.9498C104.214 15.4889 104.12 15.0737 103.933 14.7044C103.747 14.3352 103.488 14.0467 103.158 13.8392C102.829 13.6316 102.464 13.5292 102.065 13.5292C101.433 13.5292 100.911 13.7529 100.495 14.2004C100.082 14.6478 99.8742 15.2301 99.8742 15.9498C99.8742 16.6614 100.077 17.2383 100.485 17.6831C100.892 18.1278 101.414 18.3489 102.054 18.3489C102.667 18.3489 103.177 18.1251 103.593 17.6831Z" fill="#00B7AF"/>
<path d="M110.79 20.3516C110.247 19.7748 109.975 18.9311 109.975 17.8205V13.4887H108.824V10.8363H109.975V7.58002L113.234 7.23499V10.8336H115.711V13.486H113.234V17.2059C113.234 17.5725 113.291 17.8555 113.402 18.0604C113.513 18.2626 113.715 18.365 114.007 18.365C114.347 18.365 114.682 18.2814 115.014 18.1116L115.819 20.5107C115.406 20.7398 114.99 20.915 114.571 21.0336C114.153 21.1522 113.618 21.2115 112.967 21.2115C112.06 21.2142 111.333 20.9258 110.79 20.3516Z" fill="#00B7AF"/>
<path d="M117.686 9.08951C117.294 8.7337 117.1 8.27814 117.1 7.72286C117.1 7.35626 117.191 7.0301 117.375 6.74167C117.559 6.45324 117.804 6.22951 118.112 6.07047C118.42 5.91143 118.763 5.83057 119.136 5.83057C119.714 5.83057 120.197 6.00847 120.586 6.36429C120.978 6.7201 121.172 7.17296 121.172 7.72286C121.172 8.27814 120.978 8.7337 120.586 9.08951C120.195 9.44533 119.711 9.62323 119.136 9.62323C118.561 9.62323 118.077 9.44533 117.686 9.08951ZM117.507 10.8335H120.756V21.0201H117.507V10.8335Z" fill="#00B7AF"/>
<path d="M133.179 10.8335L129.236 21.0201H126.263L122.301 10.8335H125.704L127.74 17.1169H127.78L129.747 10.8335H133.179Z" fill="#00B7AF"/>
<path d="M144.226 10.8336V21.0202H141.128V19.9231H141.087C140.428 20.783 139.486 21.2142 138.254 21.2142C137.563 21.2142 136.917 21.0849 136.318 20.8288C135.721 20.57 135.211 20.2142 134.789 19.7613C134.368 19.3085 134.038 18.7505 133.801 18.0928C133.563 17.4351 133.444 16.718 133.444 15.9363C133.444 15.1708 133.563 14.4565 133.801 13.796C134.038 13.1356 134.365 12.5749 134.778 12.114C135.192 11.6531 135.686 11.2919 136.261 11.0304C136.834 10.7689 137.447 10.6395 138.1 10.6395C139.248 10.6395 140.185 11.0627 140.912 11.9091H140.952V10.8309H144.226V10.8336ZM140.466 17.6831C140.879 17.2383 141.087 16.6614 141.087 15.9498C141.087 15.4889 140.993 15.0737 140.806 14.7044C140.62 14.3352 140.361 14.0467 140.031 13.8392C139.702 13.6316 139.337 13.5292 138.938 13.5292C138.306 13.5292 137.784 13.7529 137.368 14.2004C136.955 14.6478 136.747 15.2301 136.747 15.9498C136.747 16.6614 136.95 17.2383 137.358 17.6831C137.765 18.1278 138.287 18.3489 138.927 18.3489C139.54 18.3489 140.053 18.1251 140.466 17.6831Z" fill="#00B7AF"/>
<path d="M68.3064 5.34501C68.382 5.38275 68.4522 5.42858 68.5224 5.48518C68.59 5.54179 68.6494 5.60918 68.7007 5.68196C68.752 5.75474 68.7898 5.841 68.8195 5.94074C68.8492 6.04047 68.8627 6.1456 68.8627 6.25881C68.8627 6.41516 68.8357 6.55533 68.7817 6.68202C68.7277 6.80871 68.6467 6.91923 68.5386 7.01357C68.4306 7.10792 68.2929 7.178 68.1227 7.22922C67.9526 7.28043 67.7554 7.30469 67.5367 7.30469H66.2188V3.39612H67.4233C67.5475 3.39612 67.6636 3.4042 67.7689 3.41768C67.8743 3.43116 67.9769 3.45542 68.0714 3.48777C68.166 3.52011 68.2497 3.56324 68.3226 3.61446C68.3955 3.66567 68.4576 3.72767 68.5116 3.79506C68.5657 3.86515 68.6062 3.94601 68.6332 4.03766C68.6602 4.13201 68.6737 4.23174 68.6737 4.34496C68.6737 4.54982 68.6224 4.73312 68.517 4.89755C68.4117 5.06198 68.2632 5.18058 68.0714 5.25067V5.25876C68.1525 5.28032 68.2335 5.30728 68.3064 5.34501ZM66.5266 5.14015H67.4692C67.5556 5.14015 67.6393 5.13206 67.7176 5.11859C67.7987 5.10241 67.877 5.07815 67.9526 5.04042C68.0309 5.00268 68.0957 4.95685 68.1552 4.90294C68.2119 4.84903 68.2578 4.77625 68.2929 4.68999C68.328 4.60373 68.3442 4.50669 68.3442 4.39887C68.3442 3.92984 68.012 3.69533 67.3449 3.69533H66.5239V5.14015H66.5266ZM68.2443 6.81949C68.436 6.6928 68.5332 6.50141 68.5332 6.24803C68.5332 5.98926 68.4414 5.78709 68.2605 5.64422C68.0795 5.50136 67.8203 5.43127 67.4827 5.43127H66.5239V7.01088H67.453C67.7879 7.01088 68.0525 6.94618 68.2443 6.81949Z" fill="#004943"/>
<path d="M71.1554 7.18115C70.9123 7.07871 70.7044 6.93854 70.5369 6.76064C70.3695 6.58273 70.2371 6.37247 70.1453 6.12987C70.0535 5.88727 70.0049 5.6258 70.0049 5.35085C70.0049 5.07591 70.0508 4.81983 70.1453 4.57722C70.2398 4.33462 70.3695 4.12706 70.5369 3.94916C70.7044 3.77125 70.9096 3.63108 71.1554 3.52865C71.3984 3.42622 71.6631 3.375 71.9467 3.375C72.2141 3.375 72.4652 3.42352 72.7029 3.51787C72.9405 3.61491 73.1458 3.74699 73.3186 3.91681C73.4915 4.08663 73.6292 4.29689 73.7291 4.54488C73.8291 4.79287 73.8804 5.06243 73.8804 5.35085C73.8804 5.64197 73.8291 5.91423 73.7291 6.16222C73.6292 6.41291 73.4915 6.62316 73.3186 6.79298C73.1458 6.9628 72.9378 7.09489 72.7029 7.19193C72.4652 7.28897 72.2141 7.33479 71.9467 7.33479C71.6631 7.33479 71.3984 7.28358 71.1554 7.18115ZM72.5705 6.9035C72.7677 6.81994 72.9378 6.70673 73.081 6.56116C73.2241 6.4156 73.3402 6.2377 73.424 6.02744C73.5077 5.81719 73.5509 5.59076 73.5509 5.34546C73.5509 5.10286 73.5077 4.87643 73.424 4.66618C73.3402 4.45592 73.2241 4.28071 73.081 4.13515C72.9378 3.99229 72.765 3.87907 72.5705 3.79551C72.3734 3.71464 72.1654 3.67421 71.944 3.67421C71.7063 3.67421 71.4876 3.71734 71.285 3.80629C71.0825 3.89524 70.9123 4.01385 70.7746 4.1648C70.6368 4.31575 70.5288 4.49366 70.4478 4.69853C70.3695 4.90339 70.329 5.11903 70.329 5.34546C70.329 5.52876 70.3533 5.70667 70.4019 5.87649C70.4505 6.04631 70.5234 6.19996 70.6179 6.33743C70.7125 6.47491 70.8259 6.59621 70.9555 6.70133C71.0852 6.80377 71.2337 6.88463 71.4039 6.94124C71.5713 6.99785 71.7522 7.0248 71.9413 7.0248C72.1654 7.0275 72.3761 6.98706 72.5705 6.9035Z" fill="#004943"/>
<path d="M75.8816 3.69568H74.6582V3.39917H77.4345V3.69568H76.1922V7.30775H75.8816V3.69568Z" fill="#004943"/>
<path d="M78.6934 3.39917H79.0066V7.30775H78.6934V3.39917Z" fill="#004943"/>
<path d="M81.7667 7.24853C81.575 7.19462 81.3994 7.11376 81.2401 7.00324C81.0807 6.89272 80.9403 6.76333 80.8215 6.60968C80.7026 6.45604 80.6108 6.27274 80.5433 6.06248C80.4758 5.85223 80.4434 5.62041 80.4434 5.37242C80.4434 5.15138 80.4704 4.93843 80.5217 4.73896C80.5757 4.53949 80.654 4.35619 80.762 4.18906C80.8701 4.02463 80.9997 3.87907 81.1509 3.75777C81.3022 3.63647 81.4831 3.54213 81.6911 3.47474C81.899 3.40735 82.1232 3.375 82.369 3.375C82.5526 3.375 82.7336 3.39926 82.9064 3.44778C83.0792 3.4963 83.2494 3.57717 83.4195 3.69038C83.587 3.8036 83.7409 3.94377 83.8759 4.11359L83.6356 4.31036C83.4681 4.1055 83.2764 3.94646 83.0576 3.84133C82.8389 3.73621 82.6093 3.6796 82.369 3.6796C82.1205 3.6796 81.8936 3.72273 81.6911 3.80899C81.4885 3.89525 81.3211 4.01385 81.1888 4.1648C81.0564 4.31575 80.9511 4.49366 80.8782 4.70122C80.8053 4.90878 80.7701 5.13251 80.7701 5.37511C80.7701 5.6285 80.8107 5.86032 80.8944 6.07057C80.9781 6.28083 81.0888 6.45334 81.2347 6.59351C81.3778 6.73098 81.5479 6.83881 81.7424 6.91428C81.9368 6.98976 82.1475 7.0275 82.3717 7.0275C82.874 7.0275 83.2953 6.81994 83.6383 6.40213L83.8786 6.5989C83.487 7.0895 82.9847 7.33479 82.3717 7.33479C82.1583 7.3294 81.9558 7.30245 81.7667 7.24853Z" fill="#004943"/>
<path d="M87.4248 6.27265H85.5316L85.1427 7.30775H84.8105L86.3094 3.39917H86.6389L88.1513 7.30775H87.8164L87.4248 6.27265ZM87.3141 5.97883L86.4769 3.77385H86.4715L85.6424 5.97614H87.3141V5.97883Z" fill="#004943"/>
<path d="M64.2578 28.6756L64.6737 25.2899H65.5785C66.016 25.2899 66.3536 25.4112 66.5885 25.6565C66.8235 25.9018 66.9423 26.2415 66.9423 26.6754C66.9423 26.9666 66.8991 27.2361 66.8127 27.4841C66.7263 27.7321 66.6047 27.9424 66.4481 28.1176C66.2941 28.2928 66.1024 28.4303 65.8782 28.5273C65.6541 28.627 65.4056 28.6756 65.1355 28.6756H64.2578ZM65.7702 28.2955C65.9593 28.2092 66.1186 28.0879 66.2509 27.9316C66.3806 27.7752 66.4832 27.5919 66.5561 27.3736C66.629 27.1579 66.6668 26.9261 66.6668 26.6754C66.6668 26.3169 66.5723 26.0366 66.3806 25.8371C66.1888 25.6349 65.916 25.5352 65.5569 25.5352H64.9141L64.5576 28.4276H65.1544C65.3732 28.4303 65.5812 28.3844 65.7702 28.2955Z" fill="#004943"/>
<path d="M68.9764 28.1391L69.1735 28.282C69.0925 28.3709 69.0088 28.4464 68.9251 28.5057C68.8413 28.565 68.7468 28.6135 68.6442 28.6459C68.5389 28.6782 68.4281 28.6971 68.3066 28.6971C68.0311 28.6971 67.8097 28.6109 67.6449 28.441C67.4802 28.2685 67.3965 28.0367 67.3965 27.7402C67.3965 27.5515 67.4262 27.3736 67.4829 27.2038C67.5396 27.0339 67.6206 26.8857 67.7233 26.759C67.8259 26.6323 67.9528 26.5299 68.1041 26.4544C68.2553 26.3789 68.42 26.3412 68.5983 26.3412C68.6442 26.3412 68.6928 26.3466 68.7441 26.3547C68.7954 26.3627 68.8467 26.3762 68.8981 26.3924C68.9521 26.4086 69.0007 26.4328 69.0466 26.4652C69.0925 26.4948 69.1357 26.5299 69.1735 26.5703C69.2113 26.6107 69.241 26.6593 69.2626 26.7159C69.2843 26.7725 69.2951 26.8345 69.2951 26.9019C69.2951 26.9854 69.2762 27.0663 69.241 27.1391C69.2059 27.2146 69.1573 27.2792 69.0979 27.3359C69.0385 27.3925 68.9656 27.4464 68.8792 27.4949C68.7927 27.5434 68.7009 27.5838 68.6064 27.6189C68.5119 27.6539 68.4065 27.6836 68.2958 27.7105C68.1851 27.7375 68.0771 27.7591 67.9717 27.7779C67.8664 27.7941 67.7584 27.8076 67.6476 27.8184C67.6638 28.0205 67.7314 28.1796 67.8529 28.2955C67.9744 28.4087 68.1284 28.4653 68.3147 28.4653C68.5605 28.4626 68.7819 28.3548 68.9764 28.1391ZM68.2472 26.6485C68.1392 26.6997 68.0446 26.7671 67.9609 26.8533C67.8772 26.9423 67.8097 27.0501 67.753 27.1768C67.6963 27.3035 67.6639 27.441 67.6503 27.5919C67.78 27.5785 67.9069 27.5623 68.0284 27.5407C68.15 27.5191 68.2742 27.4895 68.3984 27.4545C68.5227 27.4167 68.6334 27.3736 68.7252 27.3251C68.817 27.2765 68.8927 27.2172 68.9521 27.1472C69.0115 27.0771 69.0412 26.9989 69.0412 26.9153C69.0412 26.8506 69.0277 26.7967 68.998 26.7482C68.9683 26.6997 68.9305 26.6647 68.8792 26.6431C68.8305 26.6188 68.7819 26.6027 68.7333 26.5919C68.6847 26.5811 68.6361 26.5757 68.5875 26.5757C68.4687 26.573 68.3552 26.5973 68.2472 26.6485Z" fill="#004943"/>
<path d="M70.291 28.4707C70.4557 28.4707 70.5881 28.4329 70.6934 28.3602C70.796 28.2847 70.8501 28.185 70.8501 28.0583C70.8501 28.0259 70.8447 27.9936 70.8338 27.9639C70.823 27.9343 70.8122 27.9073 70.7987 27.8857C70.7852 27.8642 70.7663 27.8426 70.7366 27.8184C70.7096 27.7941 70.6826 27.7752 70.661 27.7591C70.6394 27.7429 70.607 27.7267 70.5665 27.7051C70.5233 27.6836 70.4909 27.6701 70.4666 27.6593L70.3558 27.6108C70.3315 27.6 70.3126 27.5919 70.2991 27.5865C70.2451 27.5623 70.1965 27.5407 70.1533 27.5191C70.1128 27.4976 70.0669 27.4733 70.0236 27.4437C69.9777 27.4167 69.9399 27.3844 69.9075 27.3547C69.8751 27.3251 69.8454 27.29 69.8211 27.2496C69.7941 27.2092 69.7752 27.166 69.7617 27.1202C69.7482 27.0717 69.7428 27.0232 69.7428 26.9693C69.7428 26.8426 69.7779 26.732 69.8454 26.635C69.9129 26.538 70.0047 26.4652 70.1155 26.414C70.2262 26.3654 70.3477 26.3412 70.4774 26.3412C70.7609 26.3412 70.9932 26.4382 71.1714 26.635L71.004 26.8075C70.9257 26.7186 70.8446 26.6566 70.7555 26.6215C70.6664 26.5865 70.5719 26.5703 70.4639 26.5703C70.3288 26.5703 70.2181 26.6054 70.1317 26.6754C70.0425 26.7455 69.9993 26.8426 69.9993 26.9639C69.9993 27.0124 70.0101 27.0582 70.0317 27.1013C70.0534 27.1445 70.0885 27.1822 70.1344 27.2172C70.1803 27.2523 70.2262 27.2792 70.2721 27.3062C70.318 27.3305 70.3747 27.3574 70.4449 27.3898C70.4585 27.3952 70.4747 27.4005 70.499 27.414C70.5557 27.4383 70.5962 27.4572 70.6259 27.4706C70.6556 27.4841 70.6934 27.503 70.7447 27.5326C70.7933 27.5596 70.8338 27.5838 70.8609 27.6027C70.8879 27.6216 70.9203 27.6485 70.9554 27.6809C70.9932 27.7132 71.0202 27.7456 71.0364 27.7779C71.0553 27.8103 71.0715 27.848 71.085 27.8938C71.0985 27.937 71.1066 27.9855 71.1066 28.0313C71.1066 28.1742 71.0688 28.2982 70.9959 28.4006C70.9203 28.503 70.823 28.5785 70.7042 28.6297C70.5827 28.6782 70.4477 28.7025 70.2964 28.7025C70.1344 28.7025 69.9858 28.6729 69.8508 28.6136C69.7158 28.5542 69.6023 28.468 69.5078 28.3548L69.6726 28.1823C69.8373 28.3736 70.0452 28.4707 70.291 28.4707Z" fill="#004943"/>
<path d="M73.464 26.465C73.5856 26.5486 73.6747 26.6618 73.7341 26.7993C73.7935 26.9367 73.8232 27.0931 73.8232 27.2656C73.8232 27.4543 73.7962 27.6376 73.7395 27.8101C73.6828 27.9826 73.6045 28.1363 73.5018 28.2657C73.3992 28.3977 73.2723 28.5029 73.121 28.581C72.9698 28.6592 72.8051 28.6996 72.6268 28.6996C72.4864 28.6996 72.354 28.6781 72.2298 28.6323C72.1056 28.5864 72.003 28.5217 71.9219 28.4355H71.9138L71.768 29.6215H71.5195L71.9192 26.3653H72.1677L72.0975 26.9475H72.1056C72.1785 26.8262 72.2595 26.7211 72.3486 26.6348C72.4405 26.5459 72.5431 26.4758 72.6619 26.4219C72.7808 26.3707 72.905 26.3437 73.0346 26.3437C73.2021 26.3383 73.3452 26.3814 73.464 26.465ZM72.9293 28.4031C73.0319 28.36 73.121 28.3034 73.1967 28.2279C73.2723 28.1524 73.3398 28.0635 73.3965 27.9637C73.4532 27.864 73.4937 27.7508 73.5234 27.6295C73.5532 27.5082 73.5667 27.3815 73.5667 27.2521C73.5667 27.1254 73.5451 27.0095 73.5045 26.9098C73.4613 26.81 73.3965 26.7292 73.3074 26.6672C73.2183 26.6052 73.1129 26.5755 72.9887 26.5755C72.8294 26.5755 72.6781 26.6294 72.5377 26.7373C72.3973 26.8451 72.2784 26.988 72.1866 27.1632C72.0948 27.3411 72.0327 27.5352 72.0003 27.7481L71.9489 28.1605C71.9813 28.2171 72.0246 28.2683 72.0786 28.3088C72.1326 28.3519 72.1893 28.3816 72.2514 28.4058C72.3135 28.4274 72.373 28.4463 72.4324 28.4543C72.4918 28.4651 72.5485 28.4705 72.6052 28.4705C72.7213 28.4651 72.8294 28.4436 72.9293 28.4031Z" fill="#004943"/>
<path d="M75.8543 28.1391L76.0515 28.282C75.9705 28.3709 75.8867 28.4464 75.803 28.5057C75.7193 28.565 75.6248 28.6135 75.5221 28.6459C75.4195 28.6782 75.3061 28.6971 75.1846 28.6971C74.9091 28.6971 74.6876 28.6109 74.5229 28.441C74.3581 28.2685 74.2744 28.0367 74.2744 27.7402C74.2744 27.5515 74.3041 27.3736 74.3608 27.2038C74.4203 27.0339 74.4986 26.8857 74.6012 26.759C74.7038 26.6323 74.8308 26.5299 74.982 26.4544C75.1332 26.3789 75.298 26.3412 75.4762 26.3412C75.5221 26.3412 75.5708 26.3466 75.6221 26.3547C75.6734 26.3627 75.7247 26.3762 75.776 26.3924C75.83 26.4086 75.8786 26.4328 75.9245 26.4652C75.9705 26.4948 76.0137 26.5299 76.0515 26.5703C76.0893 26.6107 76.119 26.6593 76.1406 26.7159C76.1622 26.7725 76.173 26.8345 76.173 26.9019C76.173 26.9854 76.1541 27.0663 76.119 27.1391C76.0839 27.2146 76.0353 27.2792 75.9759 27.3359C75.9164 27.3925 75.8435 27.4464 75.7571 27.4949C75.6707 27.5434 75.5789 27.5838 75.4843 27.6189C75.3898 27.6539 75.2845 27.6836 75.1738 27.7105C75.063 27.7375 74.955 27.7591 74.8497 27.7779C74.7443 27.7941 74.6363 27.8076 74.5256 27.8184C74.5418 28.0205 74.6093 28.1796 74.7308 28.2955C74.8524 28.4087 75.0063 28.4653 75.1927 28.4653C75.4384 28.4626 75.6599 28.3548 75.8543 28.1391ZM75.1251 26.6485C75.0171 26.6997 74.9226 26.7671 74.8389 26.8533C74.7551 26.9423 74.6876 27.0501 74.6309 27.1768C74.5742 27.3035 74.5418 27.441 74.5283 27.5919C74.6579 27.5785 74.7848 27.5623 74.9064 27.5407C75.0279 27.5191 75.1521 27.4895 75.2764 27.4545C75.4006 27.4167 75.5113 27.3736 75.6032 27.3251C75.695 27.2765 75.7706 27.2172 75.83 27.1472C75.8894 27.0771 75.9191 26.9989 75.9191 26.9153C75.9191 26.8506 75.9056 26.7967 75.8759 26.7482C75.8462 26.6997 75.8084 26.6647 75.7571 26.6431C75.7085 26.6188 75.6599 26.6027 75.6113 26.5919C75.5627 26.5811 75.514 26.5757 75.4654 26.5757C75.3466 26.573 75.2332 26.5973 75.1251 26.6485Z" fill="#004943"/>
<path d="M77.3914 26.5217C77.5264 26.4273 77.675 26.3653 77.8343 26.3384L77.7992 26.6349C77.5696 26.6538 77.3752 26.7643 77.2185 26.9584C77.0619 27.1551 76.9647 27.4004 76.9269 27.6996L76.808 28.6754H76.5596L76.8431 26.3626H77.0916L77.0268 26.8964H77.0376C77.1375 26.7427 77.2563 26.6187 77.3914 26.5217Z" fill="#004943"/>
<path d="M79.0715 28.5354C78.9094 28.6432 78.7339 28.6998 78.5448 28.6998C78.2126 28.6998 78.0749 28.4842 78.1289 28.0529L78.3099 26.5838H78.0371L78.0614 26.3628H78.3369L78.4341 25.5649L78.6853 25.519L78.5826 26.3628H79.3226L79.2983 26.5838H78.5583L78.3801 28.0205C78.3639 28.1634 78.3693 28.2712 78.4044 28.344C78.4368 28.4168 78.507 28.4545 78.6123 28.4545C78.7501 28.4545 78.8905 28.4033 79.0337 28.2982L79.0715 28.5354Z" fill="#004943"/>
<path d="M81.0857 28.1391L81.2829 28.282C81.2019 28.3709 81.1182 28.4464 81.0344 28.5057C80.9507 28.565 80.8562 28.6135 80.7536 28.6459C80.6509 28.6782 80.5375 28.6971 80.416 28.6971C80.1405 28.6971 79.9191 28.6109 79.7543 28.441C79.5896 28.2685 79.5059 28.0367 79.5059 27.7402C79.5059 27.5515 79.5356 27.3736 79.5923 27.2038C79.6517 27.0339 79.73 26.8857 79.8326 26.759C79.9353 26.6323 80.0622 26.5299 80.2134 26.4544C80.3647 26.3789 80.5294 26.3412 80.7077 26.3412C80.7536 26.3412 80.8022 26.3466 80.8535 26.3547C80.9048 26.3627 80.9561 26.3762 81.0074 26.3924C81.0614 26.4086 81.1101 26.4328 81.156 26.4652C81.2019 26.4948 81.2451 26.5299 81.2829 26.5703C81.3207 26.6107 81.3504 26.6593 81.372 26.7159C81.3936 26.7725 81.4044 26.8345 81.4044 26.9019C81.4044 26.9854 81.3855 27.0663 81.3504 27.1391C81.3153 27.2146 81.2667 27.2792 81.2073 27.3359C81.1479 27.3925 81.0749 27.4464 80.9885 27.4949C80.9021 27.5434 80.8103 27.5838 80.7158 27.6189C80.6212 27.6539 80.5159 27.6836 80.4052 27.7105C80.2945 27.7375 80.1864 27.7591 80.0811 27.7779C79.9758 27.7941 79.8677 27.8076 79.757 27.8184C79.7732 28.0205 79.8407 28.1796 79.9623 28.2955C80.0838 28.4087 80.2377 28.4653 80.4241 28.4653C80.6698 28.4626 80.8913 28.3548 81.0857 28.1391ZM80.3566 26.6485C80.2485 26.6997 80.154 26.7671 80.0703 26.8533C79.9866 26.9423 79.9191 27.0501 79.8623 27.1768C79.8056 27.3035 79.7732 27.441 79.7597 27.5919C79.8893 27.5785 80.0163 27.5623 80.1378 27.5407C80.2593 27.5191 80.3836 27.4895 80.5078 27.4545C80.632 27.4167 80.7428 27.3736 80.8346 27.3251C80.9264 27.2765 81.002 27.2172 81.0614 27.1472C81.1209 27.0771 81.1506 26.9989 81.1506 26.9153C81.1506 26.8506 81.1371 26.7967 81.1074 26.7482C81.0777 26.6997 81.0398 26.6647 80.9885 26.6431C80.9399 26.6188 80.8913 26.6027 80.8427 26.5919C80.7941 26.5811 80.7455 26.5757 80.6969 26.5757C80.578 26.573 80.4646 26.5973 80.3566 26.6485Z" fill="#004943"/>
<path d="M84.5535 26.4463C84.6939 26.5191 84.8047 26.6269 84.883 26.7671C84.9613 26.91 85.0018 27.0825 85.0018 27.282C85.0018 27.4787 84.9748 27.6647 84.9181 27.8346C84.8614 28.0071 84.7831 28.1553 84.6831 28.2847C84.5805 28.4114 84.4536 28.5138 84.2997 28.5866C84.1457 28.6594 83.9783 28.6971 83.7919 28.6971C83.5029 28.6971 83.2734 28.6136 83.1032 28.4437C82.9331 28.2739 82.8467 28.0367 82.8467 27.7321C82.8467 27.5839 82.8656 27.4437 82.9007 27.3035C82.9358 27.1661 82.9898 27.0394 83.06 26.9208C83.1302 26.8048 83.214 26.7024 83.3085 26.6135C83.4057 26.5272 83.5164 26.4571 83.6461 26.4086C83.7757 26.3601 83.9134 26.3358 84.0593 26.3358C84.2483 26.3385 84.4131 26.3736 84.5535 26.4463ZM83.557 26.7267C83.4111 26.8291 83.2977 26.9666 83.2167 27.1391C83.1357 27.3116 83.0978 27.5003 83.0978 27.7079C83.0978 27.9397 83.16 28.1257 83.2869 28.2605C83.4111 28.3952 83.5813 28.4626 83.7973 28.4626C83.9351 28.4626 84.062 28.433 84.1808 28.3764C84.2997 28.3171 84.3996 28.2389 84.4806 28.1365C84.5616 28.034 84.6264 27.9127 84.675 27.7672C84.7237 27.6216 84.7453 27.4653 84.7453 27.2981C84.7453 27.0582 84.6831 26.8776 84.5562 26.7563C84.4293 26.635 84.2618 26.573 84.0512 26.573C83.8675 26.573 83.7055 26.6242 83.557 26.7267Z" fill="#004943"/>
<path d="M90.0116 25.2899L89.5984 28.6756H89.3337L89.6794 25.8398H89.674L88.3048 27.9666H88.1103L87.2569 25.829H87.2488L86.9004 28.6756H86.6357L87.0516 25.2899H87.3298L88.2454 27.6189H88.2535L89.7308 25.2899H90.0116Z" fill="#004943"/>
<path d="M92.0047 28.1391L92.1992 28.282C92.1181 28.3709 92.0371 28.4464 91.9534 28.5057C91.8697 28.565 91.7752 28.6135 91.6725 28.6459C91.5672 28.6782 91.4565 28.6971 91.3349 28.6971C91.0595 28.6971 90.838 28.6109 90.6733 28.441C90.5085 28.2685 90.4248 28.0367 90.4248 27.7402C90.4248 27.5515 90.4545 27.3736 90.5112 27.2038C90.5706 27.0339 90.649 26.8857 90.7516 26.759C90.8542 26.6323 90.9811 26.5299 91.1324 26.4544C91.2836 26.3789 91.4484 26.3412 91.6266 26.3412C91.6725 26.3412 91.7211 26.3466 91.7725 26.3547C91.8238 26.3627 91.8751 26.3762 91.9264 26.3924C91.9804 26.4086 92.029 26.4328 92.0749 26.4652C92.1208 26.4948 92.1641 26.5299 92.2019 26.5703C92.2397 26.6107 92.2694 26.6593 92.291 26.7159C92.3126 26.7725 92.3234 26.8345 92.3234 26.9019C92.3234 26.9854 92.3045 27.0663 92.2694 27.1391C92.2343 27.2146 92.1857 27.2792 92.1262 27.3359C92.0668 27.3925 91.9939 27.4464 91.9075 27.4949C91.8211 27.5434 91.7292 27.5838 91.6347 27.6189C91.5402 27.6539 91.4349 27.6836 91.3241 27.7105C91.2134 27.7375 91.1054 27.7591 91.0001 27.7779C90.8947 27.7941 90.7867 27.8076 90.676 27.8184C90.6922 28.0205 90.7597 28.1796 90.8812 28.2955C91.0028 28.4087 91.1567 28.4653 91.343 28.4653C91.5888 28.4626 91.8103 28.3548 92.0047 28.1391ZM91.2782 26.6485C91.1702 26.6997 91.0757 26.7671 90.992 26.8533C90.9082 26.9423 90.8407 27.0501 90.784 27.1768C90.7273 27.3035 90.6949 27.441 90.6814 27.5919C90.811 27.5785 90.9379 27.5623 91.0595 27.5407C91.181 27.5191 91.3052 27.4895 91.4295 27.4545C91.5537 27.4167 91.6644 27.3736 91.7562 27.3251C91.8481 27.2765 91.9237 27.2172 91.9831 27.1472C92.0425 27.0771 92.0722 26.9989 92.0722 26.9153C92.0722 26.8506 92.0587 26.7967 92.029 26.7482C91.9993 26.6997 91.9615 26.6647 91.9102 26.6431C91.8616 26.6188 91.813 26.6027 91.7643 26.5919C91.7157 26.5811 91.6671 26.5757 91.6185 26.5757C91.497 26.573 91.3863 26.5973 91.2782 26.6485Z" fill="#004943"/>
<path d="M93.4201 25.1659L92.9907 28.6755H92.7422L93.1716 25.1659H93.4201Z" fill="#004943"/>
<path d="M95.7294 26.5703C95.8266 26.7239 95.8536 26.9611 95.8104 27.2846L95.6268 28.6755H95.3783L95.5593 27.3008C95.5755 27.1606 95.5782 27.0447 95.5701 26.953C95.562 26.8587 95.5404 26.7859 95.5025 26.7293C95.4647 26.6727 95.4188 26.635 95.3648 26.6107C95.3135 26.5864 95.2487 26.5757 95.1731 26.5757C95.0677 26.5757 94.957 26.6053 94.8436 26.6673C94.7302 26.7266 94.6248 26.8075 94.5303 26.9072C94.4358 27.0069 94.3548 27.1282 94.2845 27.2711C94.2143 27.414 94.1684 27.5595 94.1495 27.7132L94.0307 28.6809H93.7822L94.2116 25.1713H94.4628L94.2467 26.9288H94.2548C94.3845 26.7455 94.5357 26.6026 94.7086 26.5002C94.8841 26.3977 95.0596 26.3465 95.2352 26.3465C95.4674 26.3384 95.6322 26.4166 95.7294 26.5703Z" fill="#004943"/>
<path d="M98.0625 26.4463C98.203 26.5191 98.3137 26.6269 98.392 26.7671C98.4703 26.91 98.5108 27.0825 98.5108 27.282C98.5108 27.4787 98.4838 27.6647 98.4271 27.8346C98.3731 28.0071 98.2948 28.1553 98.1922 28.2847C98.0895 28.4114 97.9626 28.5138 97.8087 28.5866C97.6547 28.6594 97.4873 28.6971 97.3009 28.6971C97.012 28.6971 96.7824 28.6136 96.6123 28.4437C96.4421 28.2739 96.3584 28.0367 96.3584 27.7321C96.3584 27.5839 96.3773 27.4437 96.4124 27.3035C96.4475 27.1661 96.5015 27.0394 96.5717 26.9208C96.642 26.8048 96.723 26.7024 96.8202 26.6135C96.9147 26.5272 97.0282 26.4571 97.1578 26.4086C97.2874 26.3601 97.4252 26.3358 97.571 26.3358C97.7574 26.3385 97.9221 26.3736 98.0625 26.4463ZM97.0687 26.7267C96.9228 26.8291 96.8094 26.9666 96.7284 27.1391C96.6474 27.3116 96.6096 27.5003 96.6096 27.7079C96.6096 27.9397 96.6717 28.1257 96.7959 28.2605C96.9201 28.3952 97.0903 28.4626 97.3063 28.4626C97.4441 28.4626 97.571 28.433 97.6898 28.3764C97.8087 28.3171 97.9086 28.2389 97.9896 28.1365C98.0733 28.034 98.1381 27.9127 98.1841 27.7672C98.2327 27.6216 98.257 27.4653 98.257 27.2981C98.257 27.0582 98.1949 26.8776 98.0679 26.7563C97.941 26.635 97.7736 26.573 97.5629 26.573C97.3793 26.573 97.2145 26.6242 97.0687 26.7267Z" fill="#004943"/>
<path d="M99.8259 26.5217C99.961 26.4273 100.11 26.3653 100.272 26.3384L100.236 26.6349C100.007 26.6538 99.8124 26.7643 99.6558 26.9584C99.4992 27.1551 99.4019 27.4004 99.3641 27.6996L99.2453 28.6754H98.9941L99.2777 26.3626H99.5262L99.4614 26.8964H99.4695C99.5721 26.7427 99.6882 26.6187 99.8259 26.5217Z" fill="#004943"/>
<path d="M103.102 28.1391L103.3 28.282C103.218 28.3709 103.137 28.4464 103.054 28.5057C102.97 28.565 102.876 28.6135 102.77 28.6459C102.665 28.6782 102.554 28.6971 102.433 28.6971C102.157 28.6971 101.938 28.6109 101.771 28.441C101.606 28.2685 101.522 28.0367 101.522 27.7402C101.522 27.5515 101.552 27.3736 101.609 27.2038C101.668 27.0339 101.747 26.8857 101.849 26.759C101.952 26.6323 102.079 26.5299 102.23 26.4544C102.381 26.3789 102.546 26.3412 102.722 26.3412C102.767 26.3412 102.816 26.3466 102.867 26.3547C102.919 26.3627 102.97 26.3762 103.021 26.3924C103.073 26.4086 103.124 26.4328 103.17 26.4652C103.216 26.4948 103.259 26.5299 103.297 26.5703C103.335 26.6107 103.364 26.6593 103.386 26.7159C103.408 26.7725 103.418 26.8345 103.418 26.9019C103.418 26.9854 103.399 27.0663 103.364 27.1391C103.329 27.2146 103.281 27.2792 103.221 27.3359C103.162 27.3925 103.089 27.4464 103.002 27.4949C102.916 27.5434 102.827 27.5838 102.73 27.6189C102.632 27.6539 102.53 27.6836 102.419 27.7105C102.306 27.7375 102.198 27.7591 102.095 27.7779C101.99 27.7941 101.882 27.8076 101.768 27.8184C101.784 28.0205 101.852 28.1796 101.973 28.2955C102.095 28.4087 102.249 28.4653 102.435 28.4653C102.686 28.4626 102.908 28.3548 103.102 28.1391ZM102.373 26.6485C102.265 26.6997 102.171 26.7671 102.087 26.8533C102.003 26.9423 101.936 27.0501 101.879 27.1768C101.825 27.3035 101.79 27.441 101.776 27.5919C101.906 27.5785 102.033 27.5623 102.154 27.5407C102.276 27.5191 102.4 27.4895 102.524 27.4545C102.649 27.4167 102.759 27.3736 102.851 27.3251C102.943 27.2765 103.019 27.2172 103.078 27.1472C103.137 27.0771 103.167 26.9989 103.167 26.9153C103.167 26.8506 103.151 26.7967 103.124 26.7482C103.094 26.6997 103.054 26.6647 103.005 26.6431C102.957 26.6188 102.908 26.6027 102.859 26.5919C102.811 26.5811 102.762 26.5757 102.713 26.5757C102.595 26.573 102.481 26.5973 102.373 26.6485Z" fill="#004943"/>
<path d="M107.19 27.2846L107.004 28.6755H106.756L106.939 27.3008C106.955 27.1606 106.958 27.0447 106.95 26.9531C106.942 26.8587 106.92 26.7859 106.882 26.7293C106.845 26.6727 106.801 26.635 106.753 26.6107C106.702 26.5865 106.645 26.5757 106.575 26.5757C106.502 26.5757 106.426 26.5946 106.348 26.6323C106.269 26.67 106.194 26.7213 106.121 26.7913C106.048 26.8614 105.98 26.9423 105.918 27.0339C105.856 27.1256 105.802 27.228 105.756 27.3439C105.71 27.4598 105.681 27.5758 105.664 27.6971L105.535 28.6809H105.286L105.467 27.3062C105.483 27.166 105.486 27.0501 105.478 26.9585C105.47 26.8641 105.448 26.7913 105.413 26.7347C105.378 26.6781 105.335 26.6404 105.286 26.6161C105.238 26.5919 105.178 26.5811 105.108 26.5811C105.019 26.5811 104.922 26.6107 104.822 26.6727C104.722 26.732 104.627 26.8129 104.541 26.9126C104.455 27.0124 104.376 27.1337 104.311 27.2765C104.247 27.4194 104.203 27.565 104.182 27.7159L104.063 28.6863H103.814L104.098 26.3735H104.346L104.282 26.9099H104.29C104.409 26.7347 104.546 26.5973 104.703 26.4975C104.86 26.3978 105.016 26.3493 105.17 26.3493C105.516 26.3493 105.705 26.5353 105.735 26.9099H105.745C105.862 26.732 105.999 26.5946 106.156 26.4975C106.313 26.3978 106.472 26.3493 106.631 26.3493C107.085 26.3385 107.271 26.6539 107.19 27.2846Z" fill="#004943"/>
<path d="M111.595 25.2899L110.024 28.6756H109.767L109.024 25.2899H109.303L109.935 28.2766H109.943L111.296 25.2899H111.595Z" fill="#004943"/>
<path d="M113.108 26.4463C113.249 26.5191 113.36 26.6269 113.438 26.7671C113.516 26.91 113.557 27.0825 113.557 27.282C113.557 27.4787 113.53 27.6647 113.473 27.8346C113.419 28.0071 113.341 28.1553 113.238 28.2847C113.135 28.4114 113.009 28.5138 112.855 28.5866C112.701 28.6594 112.533 28.6971 112.347 28.6971C112.058 28.6971 111.828 28.6136 111.658 28.4437C111.488 28.2739 111.404 28.0367 111.404 27.7321C111.404 27.5839 111.423 27.4437 111.458 27.3035C111.493 27.1661 111.547 27.0394 111.618 26.9208C111.688 26.8048 111.769 26.7024 111.866 26.6135C111.961 26.5272 112.074 26.4571 112.204 26.4086C112.333 26.3601 112.471 26.3358 112.617 26.3358C112.803 26.3385 112.968 26.3736 113.108 26.4463ZM112.115 26.7267C111.969 26.8291 111.855 26.9666 111.774 27.1391C111.693 27.3116 111.655 27.5003 111.655 27.7079C111.655 27.9397 111.718 28.1257 111.842 28.2605C111.966 28.3952 112.136 28.4626 112.352 28.4626C112.49 28.4626 112.617 28.433 112.736 28.3764C112.855 28.3171 112.955 28.2389 113.036 28.1365C113.117 28.034 113.184 27.9127 113.23 27.7672C113.279 27.6216 113.303 27.4653 113.303 27.2981C113.303 27.0582 113.241 26.8776 113.114 26.7563C112.987 26.635 112.819 26.573 112.609 26.573C112.425 26.573 112.26 26.6242 112.115 26.7267Z" fill="#004943"/>
<path d="M114.55 28.6351C114.445 28.592 114.353 28.5327 114.272 28.4545C114.191 28.3763 114.126 28.2766 114.08 28.1553C114.034 28.034 114.01 27.8965 114.01 27.7429C114.01 27.5542 114.037 27.3763 114.093 27.2065C114.15 27.0366 114.231 26.8884 114.334 26.759C114.436 26.6296 114.566 26.5272 114.72 26.4544C114.874 26.3789 115.044 26.3412 115.23 26.3412C115.39 26.3412 115.541 26.3735 115.679 26.4355C115.817 26.4975 115.927 26.5919 116.011 26.7159L115.808 26.8641C115.765 26.7994 115.711 26.7455 115.649 26.6997C115.587 26.6566 115.519 26.6242 115.449 26.6027C115.379 26.5838 115.303 26.573 115.228 26.573C115.085 26.573 114.95 26.6054 114.828 26.6673C114.707 26.7293 114.604 26.8129 114.523 26.918C114.442 27.0232 114.377 27.1445 114.334 27.2846C114.291 27.4248 114.266 27.5731 114.266 27.7294C114.266 27.9531 114.328 28.131 114.45 28.2631C114.572 28.3952 114.725 28.4626 114.909 28.4626C115.206 28.4626 115.447 28.3548 115.636 28.1364L115.83 28.2793C115.711 28.4195 115.576 28.5219 115.425 28.592C115.274 28.6594 115.098 28.6944 114.896 28.6944C114.766 28.6971 114.655 28.6755 114.55 28.6351Z" fill="#004943"/>
<path d="M117.902 28.1389L118.099 28.2818C118.018 28.3707 117.937 28.4462 117.854 28.5055C117.77 28.5648 117.675 28.6133 117.57 28.6457C117.465 28.678 117.354 28.6969 117.232 28.6969C116.957 28.6969 116.738 28.6106 116.571 28.4408C116.406 28.2683 116.322 28.0365 116.322 27.74C116.322 27.5513 116.352 27.3734 116.409 27.2035C116.468 27.0337 116.546 26.8855 116.649 26.7588C116.752 26.6321 116.879 26.5296 117.03 26.4542C117.181 26.3787 117.346 26.341 117.521 26.341C117.567 26.341 117.616 26.3463 117.667 26.3544C117.719 26.3625 117.77 26.376 117.821 26.3922C117.872 26.4083 117.924 26.4326 117.97 26.465C118.016 26.4946 118.059 26.5296 118.097 26.5701C118.134 26.6105 118.164 26.659 118.186 26.7156C118.207 26.7722 118.218 26.8342 118.218 26.9016C118.218 26.9852 118.199 27.0661 118.164 27.1388C118.129 27.2143 118.08 27.279 118.021 27.3356C117.962 27.3922 117.889 27.4461 117.802 27.4947C117.716 27.5432 117.627 27.5836 117.529 27.6187C117.432 27.6537 117.33 27.6834 117.219 27.7103C117.105 27.7373 116.997 27.7588 116.895 27.7777C116.789 27.7939 116.681 27.8073 116.568 27.8181C116.584 28.0203 116.652 28.1793 116.773 28.2952C116.895 28.4085 117.049 28.4651 117.235 28.4651C117.489 28.4624 117.71 28.3545 117.902 28.1389ZM117.176 26.6483C117.068 26.6995 116.973 26.7669 116.889 26.8531C116.806 26.9421 116.738 27.0499 116.681 27.1766C116.627 27.3033 116.592 27.4407 116.579 27.5917C116.708 27.5782 116.835 27.562 116.957 27.5405C117.078 27.5189 117.203 27.4893 117.327 27.4542C117.451 27.4165 117.562 27.3734 117.654 27.3248C117.746 27.2763 117.821 27.217 117.881 27.1469C117.94 27.0768 117.97 26.9987 117.97 26.9151C117.97 26.8504 117.953 26.7965 117.926 26.748C117.897 26.6995 117.856 26.6644 117.808 26.6429C117.759 26.6186 117.71 26.6024 117.662 26.5916C117.613 26.5809 117.565 26.5755 117.516 26.5755C117.397 26.5728 117.284 26.597 117.176 26.6483ZM117.203 26.0175H116.935L117.524 25.3517H117.767L118.21 26.0175H117.948L117.643 25.5161H117.635L117.203 26.0175Z" fill="#004943"/>
<defs>
<radialGradient id="paint0_radial" cx="0" cy="0" r="1" gradientUnits="userSpaceOnUse" gradientTransform="translate(13.1616 15.4133) scale(16.2334 16.2026)">
<stop stop-color="#004943"/>
<stop offset="0.142" stop-color="#004D47" stop-opacity="0.8192"/>
<stop offset="0.2944" stop-color="#005A54" stop-opacity="0.6252"/>
<stop offset="0.4517" stop-color="#007069" stop-opacity="0.425"/>
<stop offset="0.6123" stop-color="#008E86" stop-opacity="0.2206"/>
<stop offset="0.7739" stop-color="#00B4AC" stop-opacity="0.0148"/>
<stop offset="0.7856" stop-color="#00B7AF" stop-opacity="0"/>
</radialGradient>
<radialGradient id="paint1_radial" cx="0" cy="0" r="1" gradientUnits="userSpaceOnUse" gradientTransform="translate(15.7194 15.8649) scale(14.5164 14.4888)">
<stop stop-color="#004943"/>
<stop offset="0.1229" stop-color="#006A63" stop-opacity="0.7669"/>
<stop offset="0.3022" stop-color="#00948C" stop-opacity="0.427"/>
<stop offset="0.4432" stop-color="#00ADA6" stop-opacity="0.1597"/>
<stop offset="0.5274" stop-color="#00B7AF" stop-opacity="0"/>
</radialGradient>
<radialGradient id="paint2_radial" cx="0" cy="0" r="1" gradientUnits="userSpaceOnUse" gradientTransform="translate(15.895 15.8649) scale(15.895 15.8649)">
<stop stop-color="#004943"/>
<stop offset="0.2751" stop-color="#004C46" stop-opacity="0.7249"/>
<stop offset="0.4557" stop-color="#00544E" stop-opacity="0.5443"/>
<stop offset="0.609" stop-color="#00635D" stop-opacity="0.391"/>
<stop offset="0.7472" stop-color="#007972" stop-opacity="0.2528"/>
<stop offset="0.8739" stop-color="#00948C" stop-opacity="0.1261"/>
<stop offset="0.9929" stop-color="#00B5AD" stop-opacity="0.01"/>
<stop offset="1" stop-color="#00B7AF" stop-opacity="0"/>
</radialGradient>
<linearGradient id="paint3_linear" x1="17.6939" y1="16.3375" x2="29.1327" y2="23.1913" gradientUnits="userSpaceOnUse">
<stop stop-color="#004943"/>
<stop offset="0.2026" stop-color="#006A63" stop-opacity="0.7669"/>
<stop offset="0.4981" stop-color="#00948C" stop-opacity="0.427"/>
<stop offset="0.7304" stop-color="#00ADA6" stop-opacity="0.1597"/>
<stop offset="0.8692" stop-color="#00B7AF" stop-opacity="0"/>
</linearGradient>
<linearGradient id="paint4_linear" x1="13.127" y1="16.1121" x2="2.48486" y2="8.31813" gradientUnits="userSpaceOnUse">
<stop stop-color="#004943"/>
<stop offset="0.2331" stop-color="#006A63" stop-opacity="0.7669"/>
<stop offset="0.573" stop-color="#00948C" stop-opacity="0.427"/>
<stop offset="0.8403" stop-color="#00ADA6" stop-opacity="0.1597"/>
<stop offset="1" stop-color="#00B7AF" stop-opacity="0"/>
</linearGradient>
</defs>
</svg>
